<svg xmlns="http://www.w3.org/2000/svg" viewBox="0 0 1024 1024">
  <defs>
    <path id="arm" transform="rotate(-7.5, 512, 512)" stroke="aliceblue" stroke-width="5" stroke-linejoin="round"
      fill="lightblue" fill-rule="evenodd" d="
        M 512 483.55555555555554 
        L 502.121348114948 455.97538116197217
        L 512 0
        L 521.878651885052 455.97538116197217
        Z
        M 512 85.33333333333337
        L 489.6687562172106 57.437090153734914
        L 534.3312437827894 57.437090153734914
        Z
        M 512 113.77777777777783
        L 470.1793534593875 87.387849953196
        L 553.8206465406125 87.387849953196
        Z
        M 512 142.22222222222223
        L 453.56866439466495 118.08793203180284
        L 570.4313356053351 118.08793203180284
        Z
        M 512 170.66666666666669
        L 439.85993425892485 149.32739853533883
        L 584.140065741075 149.32739853533877
        Z
        M 512 199.11111111111114
        L 412.9161634971435 185.36436540340605
        L 611.0838365028565 185.36436540340605
        Z
        M 512 227.55555555555554
        L 378.22276187781387 229.15179450715385
        L 645.7772381221861 229.15179450715374
        Z
        M 512 256
        L 646.0861829193949 261.1423959186901
        L 512 284.44444444444446
        L 377.91381708060504 261.1423959186901
        Z
        M 640 290.2974966311837
        L 383.9999999999999 290.2974966311838
        L 500.4306021525106 486.01470698261045
        L 512 455.1111111111111
        L 523.5693978474894 486.01470698261045
        Z
      " />
  </defs>
  <rect width="1024" height="1024" fill="hsl(210, 50%, 10%)" />
  <use href="#arm" />
  <use href="#arm" transform="rotate(60,512,512)" />
  <use href="#arm" transform="rotate(120,512,512)" />
  <use href="#arm" transform="rotate(180,512,512)" />
  <use href="#arm" transform="rotate(240,512,512)" />
  <use href="#arm" transform="rotate(300,512,512)" />
</svg>